<?xml version="1.0" encoding="UTF-8"?><svg id="Capa_1" xmlns="http://www.w3.org/2000/svg" xmlns:xlink="http://www.w3.org/1999/xlink" viewBox="0 0 600 400"><defs><style>.cls-1{fill:#fff;}.cls-2{fill:url(#radial-gradient);}.cls-3{fill:#333;}.cls-4{fill:#ec1e24;}</style><radialGradient id="radial-gradient" cx="300" cy="200" fx="300" fy="200" r="101.92" gradientUnits="userSpaceOnUse"><stop offset=".02" stop-color="#222"/><stop offset=".45" stop-color="#494848"/><stop offset=".69" stop-color="#343333"/><stop offset=".96" stop-color="#9b9b9b"/></radialGradient></defs><rect class="cls-3" width="600" height="400"/><circle class="cls-2" cx="300" cy="200" r="101.92"/><path class="cls-1" d="M322.32,187.13c1.76-7.45,3.24-12.98,5.5-16.62,2.27-3.64,5.21-6.5,8.85-8.6,3.63-2.1,7.06-3.15,10.27-3.15,1.82,0,3.18.36,4.11,1.07.92.72,1.39,1.57,1.39,2.55,0,.89-.31,1.64-.94,2.24-.63.59-1.45.89-2.46.89s-3.02-.31-5.91-.94c-1.43-.3-2.55-.45-3.35-.45-1.97,0-3.75,1.21-5.33,3.64-1.58,2.43-3.37,5.71-4.33,9.85l-2.24,9.51-.87,3.17-7,28.5c-2.17,8.67-5.12,15.23-9.9,19.7-4.78,4.47-9.97,6.7-15.57,6.7-1.87,0-3.3-.37-4.26-1.1-.97-.73-1.45-1.63-1.45-2.7,0-.92.33-1.66,1.01-2.21.67-.56,1.63-.83,2.88-.83.63,0,1.55.08,2.77.22,2.08.27,4.08.4,5.99.4,2.95,0,5.09-.69,6.43-2.08,1.34-1.39,3.21-4.78,4.54-10.16l9.07-36.46.8-3.17Z"/><path class="cls-1" d="M263.99,211.06h-15.83v-1.2c2.13-.08,3.59-.4,4.39-.96,1.21-.85,1.81-2.45,1.81-4.82v-29.86c0-2.29-.82-3.43-2.47-3.43-1.04,0-2.48.36-4.33,1.08v-.96l10.17-4.88v39.19c0,1.73.48,2.95,1.45,3.68.96.64,2.57.96,4.81.96v1.2Z"/><path class="cls-1" d="M276.58,207.83c0,1.04-.38,1.93-1.14,2.65-.69.52-1.38.78-2.11.78s-1.44-.26-2.04-.78c-.73-.68-1.09-1.57-1.09-2.65s.31-2.09.91-2.89c.61-.76,1.34-1.15,2.22-1.15s1.67.38,2.35,1.15c.6.8.91,1.76.91,2.89Z"/><path class="cls-1" d="M300.35,199.03v12.04h-3.13v-12.04h-17.15v-2.47l19.08-30.7h1.2v33.17ZM297.17,196.68v-23.66l-14.57,23.66h14.57Z"/><polygon class="cls-1" points="338.89 198.78 315.48 198.78 315.48 195.49 339.18 195.49 338.89 198.78"/><rect class="cls-1" x="280.97" y="195.49" width="32.19" height="3.29"/><path class="cls-4" d="M210.83,169.9s49.77-47.67,100.31-41.86c0,0-37.91-9.29-61.21-7.8,0,0-25.91,14.56-39.1,49.66Z"/><path class="cls-4" d="M330.78,110.82c-2.59-3.21,43.85,56.2,39.76,95.41,0,0,8.65-33.6,7.56-59.26,0,0-16.91-25.93-47.32-36.15Z"/><path class="cls-4" d="M384.03,156.94s-11.92,79.04-37.6,97.27c0,0,34.81-19.37,46.36-36.77,0,0,6.96-24.45-8.76-60.49Z"/><path class="cls-4" d="M297.06,274.34s35.09-1.98,91.9-42.7c0,0-11.12,31.38-39.29,48.56,0,0-50.13-1.71-52.61-5.86Z"/><path class="cls-4" d="M340.47,285.19s-76.07-9.36-91.8-32.15c0,0,26.49,36.17,32.26,39.22,0,0,22.18,8.1,59.54-7.07Z"/><path class="cls-4" d="M269.18,289.01s-47.27-49.21-41.47-98.52c0,0-7.85,40.17-6.95,60.27,0,0,18.06,27.39,48.42,38.25Z"/><path class="cls-4" d="M215.58,241.58s5.74-75.69,41.37-99.72c0,0-43.87,29.81-48.49,36.31,0,0-9.72,25.43,7.12,63.4Z"/><path class="cls-4" d="M258.94,115.21s74.07,7.58,93.95,38.35c0,0-24.3-41.15-30.54-45.19,0,0-29.02-9.61-63.41,6.84Z"/></svg>