<?xml version="1.0" encoding="UTF-8"?><svg id="Capa_1" xmlns="http://www.w3.org/2000/svg" xmlns:xlink="http://www.w3.org/1999/xlink" viewBox="0 0 600 400"><defs><style>.cls-1{fill:url(#linear-gradient-2);}.cls-2{letter-spacing:0em;}.cls-3{fill:#255390;}.cls-4{letter-spacing:0em;}.cls-5{letter-spacing:.01em;}.cls-6{letter-spacing:0em;}.cls-7{fill:#fff;}.cls-8{letter-spacing:0em;}.cls-9{letter-spacing:0em;}.cls-10{letter-spacing:0em;}.cls-11{fill:url(#linear-gradient-4);}.cls-12{letter-spacing:0em;}.cls-13{letter-spacing:0em;}.cls-14{fill:url(#linear-gradient-3);}.cls-15{letter-spacing:0em;}.cls-16{fill:#dcb2c8;}.cls-17{fill:#231f20;}.cls-18{fill:#2b3175;}.cls-19{letter-spacing:0em;}.cls-20{fill:#43bdc2;}.cls-21{letter-spacing:0em;}.cls-22{font-family:Myriad-Roman, 'Myriad Roman';font-size:10.71px;}.cls-23{fill:#c97db6;}.cls-24{letter-spacing:0em;}.cls-25{fill:#333;opacity:.05;}.cls-26{fill:#2988ae;}.cls-27{letter-spacing:0em;}.cls-28{fill:url(#linear-gradient);}.cls-29{letter-spacing:0em;}</style><linearGradient id="linear-gradient" x1="235.3" y1="210.66" x2="410.44" y2="210.66" gradientUnits="userSpaceOnUse"><stop offset=".13" stop-color="#f60"/><stop offset=".14" stop-color="#ff5705"/><stop offset=".17" stop-color="#ff400e"/><stop offset=".2" stop-color="#ff2e15"/><stop offset=".24" stop-color="#ff211a"/><stop offset=".28" stop-color="#ff1a1d"/><stop offset=".39" stop-color="#ff181e"/><stop offset=".61" stop-color="#960e11"/><stop offset=".8" stop-color="#450608"/><stop offset=".94" stop-color="#130102"/><stop offset="1" stop-color="#000"/></linearGradient><linearGradient id="linear-gradient-2" x1="224.35" y1="251.92" x2="260.14" y2="251.92" gradientUnits="userSpaceOnUse"><stop offset=".33" stop-color="#ffec00"/><stop offset=".93" stop-color="#f60"/></linearGradient><linearGradient id="linear-gradient-3" x1="290.52" y1="188.55" x2="394.49" y2="188.55" gradientUnits="userSpaceOnUse"><stop offset=".03" stop-color="#c97db6"/><stop offset=".04" stop-color="#cd89ba"/><stop offset=".07" stop-color="#d49bc0"/><stop offset=".1" stop-color="#d8a8c4"/><stop offset=".14" stop-color="#dbafc7"/><stop offset=".22" stop-color="#dcb2c8"/><stop offset=".23" stop-color="#d7b2c7"/><stop offset=".34" stop-color="#88b8c4"/><stop offset=".42" stop-color="#56bbc2"/><stop offset=".46" stop-color="#43bdc2"/><stop offset=".58" stop-color="#329bb5"/><stop offset=".66" stop-color="#2988ae"/><stop offset=".83" stop-color="#255390"/><stop offset="1" stop-color="#000"/></linearGradient><linearGradient id="linear-gradient-4" x1="212.38" y1="259.08" x2="255.11" y2="259.08" gradientUnits="userSpaceOnUse"><stop offset=".11" stop-color="#8bcfb7"/><stop offset=".87" stop-color="#ffec00"/></linearGradient></defs><rect class="cls-25" width="600" height="400"/><path class="cls-28" d="M322.87,174.68c-31.3,8.81-58.56,27.72-75.78,66.51-17.22,38.79-10.5,40.18-10.5,40.18,7.98-35.68,22.68-57.55,22.68-57.55,30.24-41.15,43.67-29.81,66.35-42.41,22.68-12.6,15.96-17.64,31.49-31.08,15.54-13.45,53.33,0,53.33,0-60.47-30.66-56.27,15.55-87.57,24.36Z"/><path class="cls-18" d="M375.59,136.72s-19.35-25.28-41.17-5.42c0,0,17.65-11.97,41.17,5.42Z"/><path class="cls-26" d="M322.87,129.68s-18.67-43.6-69.9-44.86c0,0,52.88,52.34,69.9,44.86Z"/><path class="cls-20" d="M306.3,136.72s-50.81-44.81-108.34-27.78c0,0,87.76,42.72,108.34,27.78Z"/><path class="cls-16" d="M295.36,152.02s-49.52-28.95-105.79-3.87c0,0,90.61,20.03,105.79,3.87Z"/><path class="cls-23" d="M282.36,163.77s-58.01,10.3-70.97,55.01c0,0,13.21-18.19,31.06-32.39,15.33-12.19,35.25-20.49,39.91-22.62Z"/><path class="cls-17" d="M358.98,134.69c0,1.67,1.35,3.02,3.02,3.02s3.02-1.35,3.02-3.02-1.35-3.02-3.02-3.02-3.02,1.35-3.02,3.02Z"/><path class="cls-7" d="M360.68,133.76c0,1.06.86,1.92,1.92,1.92s1.92-.86,1.92-1.92-.86-1.92-1.92-1.92-1.92.86-1.92,1.92Z"/><path class="cls-1" d="M260.14,208.65s-33.81,45.4-30.43,80.65c0,0,.24,15.34-4.79-3.38-5.43-20.21,29.42-79.04,35.22-77.27Z"/><path class="cls-14" d="M394.49,158.72s-8.06-5.86-39.49,27.04c-11.82,12.37-20.4,17.76-59.65,28.21-3.61.96-12.89,4.76,10.94,4.81,23.84.05,51.53-22.2,56.31-27.04,4.07-4.13,31.89-33.02,31.89-33.02Z"/><path class="cls-3" d="M329.78,128.15s-15.35-14.02-16.06-23.07c-.71-9.06,25.35-1.56,16.06,23.07Z"/><path class="cls-11" d="M255.11,202.99s-47.74,46.59-35.42,91.57c12.32,44.98-4.13,2.73-4.82,0-6.9-27.28-1.33-49.8,40.24-91.57Z"/><text class="cls-22" transform="translate(259.96 277.07)"><tspan class="cls-19" x="0" y="0">E</tspan><tspan x="5.23" y="0">quipo </tspan><tspan class="cls-8" x="33.91" y="0">I</tspan><tspan class="cls-29" x="36.57" y="0">n</tspan><tspan class="cls-12" x="42.48" y="0">t</tspan><tspan x="45.96" y="0">e</tspan><tspan class="cls-21" x="51.32" y="0">r</tspan><tspan x="54.72" y="0">disciplina</tspan><tspan class="cls-10" x="97.04" y="0">r</tspan><tspan class="cls-6" x="100.59" y="0">io</tspan></text><text class="cls-22" transform="translate(247.67 288.42)"><tspan class="cls-2" x="0" y="0">A</tspan><tspan class="cls-9" x="6.52" y="0">p</tspan><tspan class="cls-4" x="12.62" y="0">o</tspan><tspan class="cls-27" x="18.42" y="0">y</tspan><tspan x="23.36" y="0">o a la </tspan><tspan class="cls-5" x="48.9" y="0">I</tspan><tspan class="cls-15" x="51.57" y="0">n</tspan><tspan class="cls-13" x="57.47" y="0">t</tspan><tspan x="60.95" y="0">e</tspan><tspan class="cls-13" x="66.32" y="0">g</tspan><tspan class="cls-24" x="72.24" y="0">r</tspan><tspan x="75.69" y="0">ación Es</tspan><tspan class="cls-12" x="111.76" y="0">c</tspan><tspan x="116.49" y="0">olar</tspan></text><path d="M287.39,237.12c-.91-.93-1.82-1.63-2.75-2.08-.93-.45-1.9-.68-2.92-.68-1.77,0-3.21.61-4.34,1.83-1.12,1.22-1.68,2.79-1.68,4.7s.56,3.46,1.67,4.65c1.12,1.19,2.57,1.78,4.35,1.78,1.06,0,2.11-.22,3.16-.66,1.05-.44,2.1-1.11,3.15-1.99l-.32,5.55c-.89.61-1.87,1.07-2.93,1.38-1.06.32-2.17.48-3.31.48-1.23,0-2.41-.19-3.54-.58-1.13-.39-2.17-.95-3.12-1.7-1.35-1.06-2.38-2.35-3.09-3.87-.72-1.52-1.08-3.18-1.08-4.98,0-1.55.26-3,.79-4.35.53-1.36,1.3-2.55,2.31-3.59,1.02-1.04,2.2-1.83,3.53-2.39,1.34-.55,2.74-.83,4.23-.83,1.17,0,2.29.16,3.36.49,1.07.33,2.09.82,3.06,1.49l-.53,5.35Z"/><path d="M295.21,251.41h-4.54v-12.99h4.23l.09,2.28c.52-.91,1.12-1.58,1.82-1.99.7-.41,1.56-.62,2.6-.62h.36v4.84h-.98c-1.41,0-2.36.16-2.85.48-.49.32-.73,1.1-.73,2.33v5.67Z"/><path d="M314.27,246.77l-.51,3.99c-.89.42-1.75.74-2.61.94-.86.2-1.72.3-2.6.3-2.16,0-3.91-.62-5.23-1.87-1.33-1.24-1.99-2.87-1.99-4.87s.72-3.85,2.18-5.28c1.45-1.44,3.22-2.16,5.29-2.16,1.78,0,3.24.53,4.38,1.58,1.14,1.05,1.71,2.42,1.71,4.09,0,.26-.02.67-.06,1.24v.09s-.42.59-.42.59l-8.87.24c.07.87.43,1.58,1.1,2.13.66.54,1.5.81,2.51.81.71,0,1.5-.15,2.37-.46.87-.31,1.78-.76,2.75-1.37ZM305.65,243.7l5.64-.17v-.2c0-.68-.24-1.24-.72-1.68-.48-.44-1.08-.66-1.81-.66-.82,0-1.5.24-2.05.71-.55.48-.9,1.14-1.05,2Z"/><path d="M345.86,246.77l-.5,3.99c-.88.42-1.76.74-2.61.94-.86.2-1.72.3-2.59.3-2.16,0-3.91-.62-5.23-1.87-1.33-1.24-1.99-2.87-1.99-4.87s.73-3.85,2.18-5.28c1.45-1.44,3.21-2.16,5.29-2.16,1.78,0,3.24.53,4.38,1.58,1.14,1.05,1.71,2.42,1.71,4.09,0,.26-.02.67-.06,1.24l-.02.09-.4.59-8.87.24c.07.87.43,1.58,1.1,2.13.66.54,1.5.81,2.51.81.71,0,1.5-.15,2.37-.46.87-.31,1.78-.76,2.75-1.37ZM337.24,243.7l5.64-.17v-.2c0-.68-.24-1.24-.72-1.68-.48-.44-1.09-.66-1.82-.66-.82,0-1.5.24-2.05.71-.55.48-.9,1.14-1.05,2Z"/><path d="M353.61,251.41h-4.54v-12.99h4.22l.09,2.28c.52-.91,1.12-1.58,1.82-1.99.7-.41,1.57-.62,2.6-.62h.36v4.84h-.98c-1.41,0-2.36.16-2.85.48-.49.32-.73,1.1-.73,2.33v5.67Z"/><path d="M337.53,222.85c-1.13.26-3.43,2.97-3.43,2.97,0,0-2.41-4.81-12.14-2.66,0,0-4.25,1.74-5.38,3.07-1.13,1.33-5.02,5.02,0,10.19,0,0,1.74,1.64,3.53,2.82,1.79,1.18,8.55,5.53,8.5,11.06-.05,5.53-6.49,10.55-14.54,11.37-8.05.82-15.89-.59-12.54-7.17,3.14-6.17,11.09-4.03,11.09-4.03,0,0,1.93.42.6-.99,0,0-6.06-2.56-11.33,2.51-5.28,5.07-2.82,9.8,4.96,10.98,0,0,12.23,1.67,21.5-5.65,9.27-7.32-1.02-15.98-1.02-15.98,0,0-7.12-5.53-7.48-5.94s-5.2-4.5-1.17-8.45c4.03-3.95,12.28-4.66,14.33-.1,0,0-4.2,3.84-2.97,5.99,0,0,2.2,1.28,4.2-1.18,2-2.46.61-4.97.36-5.17,0,0,2.46-2.36,2.92-2.66.46-.3,1.13-1.23,0-.97ZM331.7,232.53c-1.77.09,1.79-4.76,1.79-4.76,1.02,1.18-.02,4.68-1.79,4.76Z"/></svg>