<?xml version="1.0" encoding="UTF-8"?><svg id="Capa_1" xmlns="http://www.w3.org/2000/svg" viewBox="0 0 600 400"><defs><style>.cls-1{fill:#fff;}.cls-2{fill:#06c;}</style></defs><rect class="cls-2" width="600" height="400"/><path class="cls-1" d="M168.51,253.8c-6.62,5.64-15.37,8.84-24.88,8.22-17.34-1.14-31.39-15.33-32.37-32.68-.64-11.29,4.12-21.49,11.92-28.27,1.6-1.39,4.03-1.25,5.41.36h0c1.36,1.58,1.19,3.96-.38,5.32-6.39,5.52-10.18,13.97-9.29,23.26,1.25,13,11.92,23.44,24.95,24.42,7.58.57,14.57-1.97,19.81-6.48,1.57-1.35,3.95-1.13,5.3.44h0c1.39,1.61,1.16,4.03-.46,5.41Z"/><path class="cls-1" d="M162.33,223.22c-6,0-10.57-1.33-13.71-4-3.15-2.67-4.72-6.92-4.72-12.77v-57.19c0-.96.48-1.74,1.44-2.33.96-.59,2-.89,3.11-.89,1.18,0,2.26.3,3.22.89.96.59,1.44,1.37,1.44,2.33v21.32h13.99c.89,0,1.57.37,2.05,1.11.48.74.72,1.59.72,2.55s-.24,1.8-.72,2.5c-.48.7-1.17,1.05-2.05,1.05h-13.99v28.65c0,3.18.68,5.42,2.05,6.72,1.37,1.3,3.76,1.94,7.16,1.94h3.44c1.33,0,2.33.41,3,1.22.67.82,1,1.74,1,2.78s-.33,1.98-1,2.83c-.67.85-1.67,1.28-3,1.28h-3.44Z"/><path class="cls-1" d="M197.97,223.22c-4.81,0-9.07-.91-12.77-2.72-3.7-1.81-6.63-4.33-8.77-7.55-2.15-3.22-3.22-6.98-3.22-11.27v-11.66c0-3.78,1.02-7.25,3.05-10.44,2.03-3.18,4.72-5.74,8.05-7.66,3.33-1.92,6.99-2.89,10.99-2.89s7.38.89,10.6,2.67c3.22,1.78,5.81,4.18,7.77,7.22,1.96,3.04,2.94,6.55,2.94,10.55,0,2.96-.48,5.09-1.44,6.39-.96,1.3-2.18,2.09-3.66,2.39-1.48.3-3.04.44-4.66.44h-24.43v3.33c0,4.15,1.48,7.42,4.44,9.83,2.96,2.41,6.77,3.61,11.44,3.61,2.74,0,4.92-.37,6.55-1.11,1.63-.74,2.96-1.46,4-2.17,1.04-.7,1.96-1.05,2.78-1.05s1.5.24,2.05.72c.56.48.98,1.05,1.28,1.72s.44,1.26.44,1.78c0,.96-.7,2.05-2.11,3.28-1.41,1.22-3.42,2.3-6.05,3.22-2.63.92-5.72,1.39-9.27,1.39ZM182.43,192.46h20.54c2,0,3.31-.24,3.94-.72.63-.48.94-1.42.94-2.83,0-2.22-.54-4.27-1.61-6.16-1.07-1.89-2.57-3.42-4.5-4.61-1.93-1.18-4.11-1.78-6.55-1.78-2.3,0-4.41.54-6.33,1.61-1.93,1.07-3.48,2.54-4.66,4.39-1.19,1.85-1.78,3.89-1.78,6.11v4Z"/><path class="cls-1" d="M268.71,223.19c-3.41,0-6.5-.87-9.27-2.61-2.78-1.74-4.76-3.76-5.94-6.05v4.44c0,.82-.41,1.57-1.22,2.28-.82.7-1.85,1.05-3.11,1.05s-2.31-.35-3.17-1.05c-.85-.7-1.28-1.46-1.28-2.28v-77.84c0-.96.43-1.74,1.28-2.33.85-.59,1.9-.89,3.17-.89,1.33,0,2.46.3,3.39.89.92.59,1.39,1.37,1.39,2.33v36.31c1.18-2.15,3.02-4.09,5.5-5.83,2.48-1.74,5.5-2.61,9.05-2.61s6.94.98,9.94,2.94c3,1.96,5.4,4.53,7.22,7.72,1.81,3.18,2.72,6.74,2.72,10.66v11.33c0,3.7-.91,7.2-2.72,10.49-1.82,3.29-4.2,5.96-7.16,8-2.96,2.04-6.22,3.05-9.77,3.05ZM266.49,214.86c2.29,0,4.4-.63,6.33-1.89,1.92-1.26,3.46-2.92,4.61-5,1.15-2.07,1.72-4.18,1.72-6.33v-11.33c0-2.15-.57-4.22-1.72-6.22-1.15-2-2.68-3.63-4.61-4.89-1.93-1.26-4.07-1.89-6.44-1.89-2,0-3.96.54-5.89,1.61-1.93,1.07-3.5,2.55-4.72,4.44-1.22,1.89-1.83,4.2-1.83,6.94v14.32c0,.96.56,2.26,1.67,3.89,1.11,1.63,2.63,3.09,4.55,4.39,1.92,1.3,4.03,1.94,6.33,1.94Z"/><path class="cls-1" d="M318.79,223.19c-4.1,0-7.82-1.01-11.17-3.01-3.35-2.01-6.03-4.65-8.04-7.93-2.01-3.27-3.01-6.77-3.01-10.5v-29.03c0-.82.46-1.58,1.39-2.29.93-.71,2.03-1.06,3.29-1.06s2.34.35,3.24,1.06c.89.71,1.34,1.47,1.34,2.29v29.03c0,2.23.58,4.34,1.73,6.31,1.15,1.97,2.7,3.59,4.63,4.86,1.94,1.27,4.09,1.9,6.48,1.9s4.54-.63,6.48-1.9c1.94-1.26,3.46-2.88,4.58-4.86,1.12-1.97,1.68-4.08,1.68-6.31v-29.14c0-.89.48-1.66,1.45-2.29.97-.63,2.05-.95,3.24-.95,1.41,0,2.53.32,3.35.95.82.63,1.23,1.4,1.23,2.29v29.14c0,3.8-.99,7.31-2.96,10.55-1.97,3.24-4.63,5.86-7.98,7.87-3.35,2.01-7,3.01-10.94,3.01Z"/><path class="cls-1" d="M366.09,223.19c-3.55,0-6.7-.46-9.44-1.39-2.74-.92-4.89-2.02-6.44-3.28-1.56-1.26-2.33-2.52-2.33-3.78,0-.59.15-1.2.44-1.83.3-.63.68-1.18,1.17-1.67.48-.48,1.02-.72,1.61-.72.89,0,1.85.43,2.89,1.28,1.03.85,2.44,1.72,4.22,2.61,1.78.89,4.33,1.33,7.66,1.33,3.92,0,6.66-.72,8.22-2.17,1.56-1.44,2.33-3.05,2.33-4.83,0-2.29-.67-4.05-2-5.27-1.33-1.22-3.04-2.18-5.11-2.89-2.07-.7-4.26-1.39-6.55-2.05-2.3-.67-4.48-1.5-6.55-2.5-2.07-1-3.76-2.4-5.05-4.22-1.3-1.81-1.94-4.24-1.94-7.27,0-2.44.59-4.85,1.78-7.22,1.18-2.37,3.11-4.35,5.77-5.94,2.66-1.59,6.22-2.39,10.66-2.39,2.59,0,5.09.28,7.49.83,2.41.56,4.37,1.3,5.89,2.22,1.52.93,2.28,1.91,2.28,2.94,0,.44-.15,1.04-.44,1.78-.3.74-.7,1.41-1.22,2-.52.59-1.18.89-2,.89-.59,0-1.43-.28-2.5-.83-1.07-.56-2.37-1.09-3.89-1.61-1.52-.52-3.35-.78-5.5-.78-2.44,0-4.41.43-5.89,1.28-1.48.85-2.55,1.85-3.22,3-.67,1.15-1,2.31-1,3.5,0,1.85.65,3.29,1.94,4.33,1.29,1.04,3,1.87,5.11,2.5,2.11.63,4.31,1.26,6.61,1.89,2.29.63,4.48,1.52,6.55,2.66,2.07,1.15,3.77,2.72,5.11,4.72,1.33,2,2,4.66,2,7.99,0,4.52-1.63,8.13-4.89,10.83-3.26,2.7-7.85,4.05-13.77,4.05Z"/><path class="cls-1" d="M413.06,223.19c-5.11,0-9.31-.96-12.6-2.89-3.29-1.92-5.74-4.5-7.33-7.72-1.59-3.22-2.39-6.87-2.39-10.94v-11.1c0-4,.79-7.62,2.39-10.88,1.59-3.26,4.03-5.85,7.33-7.77,3.29-1.92,7.46-2.89,12.49-2.89,3.26,0,6.11.41,8.55,1.22,2.44.82,4.33,1.81,5.66,3,1.33,1.19,2,2.33,2,3.44,0,.59-.17,1.24-.5,1.94-.33.7-.78,1.32-1.33,1.83-.56.52-1.2.78-1.94.78s-1.54-.33-2.39-1c-.85-.67-2-1.31-3.44-1.94-1.44-.63-3.46-.94-6.05-.94-4.52,0-7.9,1.19-10.16,3.55-2.26,2.37-3.39,5.59-3.39,9.66v11.1c0,4.07,1.13,7.29,3.39,9.66,2.26,2.37,5.68,3.55,10.27,3.55,2.66,0,4.74-.35,6.22-1.05,1.48-.7,2.65-1.37,3.5-2,.85-.63,1.68-.94,2.5-.94s1.52.24,2.11.72c.59.48,1.06,1.05,1.39,1.72.33.67.5,1.33.5,2,0,1.11-.7,2.28-2.11,3.5-1.41,1.22-3.37,2.26-5.89,3.11-2.52.85-5.44,1.28-8.77,1.28Z"/><path class="cls-1" d="M478.49,204.55c1.54-3.09,2.27-6.67,1.87-10.43-.9-8.59-7.79-15.6-16.38-16.6-12.14-1.43-22.33,8.74-20.92,20.88.98,8.36,7.65,15.17,15.99,16.33,3.57.5,6.99-.03,10-1.31,1.52-.65,3.29-.25,4.47.92h0c2.12,2.11,1.37,5.66-1.39,6.82-3.95,1.65-8.37,2.4-12.99,1.97-12.89-1.2-23.3-11.68-24.42-24.57-1.47-17.06,12.86-31.18,29.99-29.34,13.02,1.4,23.31,12.28,24.04,25.35.28,4.97-.77,9.67-2.84,13.77-1.27,2.51-4.66,2.99-6.64,1.01h0c-1.26-1.26-1.58-3.19-.78-4.79Z"/></svg>