<?xml version="1.0" encoding="UTF-8"?><svg id="Capa_1" xmlns="http://www.w3.org/2000/svg" viewBox="0 0 600 400"><defs><style>.cls-1{fill:#f9a01b;}.cls-2{stroke:#82c55b;}.cls-2,.cls-3{fill:none;stroke-miterlimit:10;}.cls-4{fill:#82c55b;}.cls-5,.cls-6{fill:#231f20;}.cls-7{fill:#9957a5;}.cls-8{fill:#333;opacity:.05;}.cls-9{fill:#daa74a;}.cls-3{stroke:#231f20;stroke-linecap:square;}.cls-6{font-family:ArnoPro-Caption, 'Arno Pro';font-size:24.61px;}</style></defs><rect class="cls-8" width="600" height="400"/><path class="cls-5" d="M148.18,129.57c4.09,0,12.39.36,18.89.36,8.31,0,17.33-.36,19.98-.36.97.6,1.09,5.18.48,5.77-2.65.6-5.54,1.44-6.5,1.81-.72.48-1.2,1.68-.72,3.37,2.53,7.1,11.79,30.57,16.49,41.16,0,.12.61.25.84,0,3.49-7.1,12.51-29.72,14.69-37.67,1.2-3.37,1.33-6.26-2.41-7.1-1.92-.48-4.82-1.08-8.06-1.56-.61-.97-.12-5.18.6-5.77,2.29,0,6.02.36,16.49.36,8.79,0,13-.36,16.13-.36.48.6.84,4.69.12,5.77-2.89.72-5.78,1.33-7.22,2.17-3.13,2.04-4.33,4.81-7.1,10.47-4.57,9.15-10.59,23.34-17.09,38.87-3.6,8.43-5.29,13.48-6.37,17.33-2.53-.24-9.63-.24-12.64,0-1.81-5.65-4.09-11.79-6.86-18.17-6.74-17.09-11.07-27.8-14.69-36.23-4.45-10.34-6.26-12.03-10.34-13.11-1.56-.48-3.01-.61-5.3-1.09-.48-.96-.11-5.54.61-6.01Z"/><path class="cls-5" d="M235.32,129.57c4.09,0,10.12.36,18.9.36,12.88,0,16.85-.36,19.98-.36.48.72.6,5.05,0,5.77-2.65.36-5.18.72-7.1,1.33-2.77.84-2.77,3.24-2.89,5.41-.24,3.97-.12,10.11-.12,20.46,0,11.07-.11,23.11.12,27.8.12,2.17.37,4.58,3.49,5.54,1.45.48,5.3,1.09,8.07,1.56.48.97-.12,5.18-.97,5.78-3.73-.12-9.03-.36-19.62-.36s-15.53.36-20.1.36c-.84-.72-.72-5.18,0-5.78,2.65-.35,4.57-.72,5.9-.96,3.49-.72,4.21-1.69,4.57-6.26.25-2.89.25-20.83.25-26.72,0-13.01,0-17.09-.25-21.91-.11-2.53-1.08-4.21-3.13-4.82-2.77-.84-4.81-1.08-7.34-1.44-.48-.84-.48-4.93.24-5.77Z"/><path class="cls-5" d="M283.46,129.57c3.01,0,13.24.36,18.06.36,12.39,0,19.62-.36,23.7-.36,15.41,0,24.07,8.67,24.07,19.26,0,9.51-6.02,14.8-14.08,18.29-.12,0-.24.72-.12.97,2.53,4.93,13.11,18.54,18.41,23.83,3.97,3.97,5.18,4.46,11.79,5.42.25.24-.6,5.77-1.32,6.01-6.74.48-20.46-.36-25.28-2.77-3.37-1.8-5.65-4.21-6.38-5.41-5.05-6.26-9.39-13.72-13.36-19.98-.97-1.44-1.8-1.69-3.49-1.81-1.21-.11-3.13-.11-3.49-.11-.25,0-.6.6-.6.84,0,7.34.12,12.88.24,16.73.11,2.64.84,4.46,3.13,5.18,2.77.84,3.96.97,7.22,1.44.72.12.47,5.78-.36,5.78-2.05,0-8.79-.36-18.78-.36s-16,.36-19.49.36c-.61-.48-1.09-5.18-.12-5.78,1.81-.24,4.69-.72,6.26-1.08,2.65-.6,3.49-2.29,3.61-5.54.24-3.85.36-17.46.36-24.92,0-11.79,0-20.21-.24-24.55-.25-2.65-1.2-4.1-3.37-4.58-1.44-.48-4.21-.96-6.86-1.44-.83-1.08-.36-5.3.48-5.77ZM312.47,136.91c-.37.36-.84,1.33-.84,1.8-.24,3.73-.24,17.09-.24,25.88,0,.48.24,1.2.84,1.2,4.94,0,10.84-.35,12.76-1.44,3.37-1.69,6.02-4.81,6.02-12.15,0-9.98-6.02-15.88-14.69-15.88-1.2,0-3.37.24-3.85.6Z"/><path class="cls-5" d="M378.3,194.08c-7.7-7.82-10.23-18.41-10.23-27.69,0-9.98,3.25-22.38,14.56-30.45,6.86-4.81,16.13-8.18,27.32-8.18,25.28,0,38.51,17.45,38.51,37.43,0,9.03-2.4,17.94-7.46,24.56-8.42,10.59-20.58,15.28-32.62,15.28-14.69,0-23.47-4.33-30.09-10.95ZM420.42,194.56c5.54-5.06,7.22-14.69,7.22-25.04,0-12.64-3.24-24.67-10.47-30.81-3.37-2.77-6.38-4.09-10.96-4.09-3.01,0-6.26.72-8.54,2.41-6.74,4.57-8.79,14.68-8.79,25.75,0,10.23,3.02,23.71,11.2,30.69,3.37,2.65,6.74,4.33,11.67,4.33,2.89,0,6.14-.96,8.67-3.24Z"/><path class="cls-5" d="M408.55,92.11c-.22-.44-.88-.11-.88,0-2.3,4.05-21.45,35.11-24.51,38.07-.43.43-6.57-1.97-7.88-2.63-.22-.11-.43-.76-.43-.98,3.72-5.03,24.84-36.76,29.33-48.14.87-.33,6.78,1.2,7.11,1.53,4.92,10.5,27.13,44.64,30.42,48.79,0,.22-.33.77-.66.88-1.65,0-8.54-1.09-9.3-2.08-2.19-2.84-19.38-28.11-23.2-35.44Z"/><line class="cls-3" x1="147.36" y1="221.74" x2="452.64" y2="221.74"/><line class="cls-3" x1="147.36" y1="255.43" x2="452.64" y2="255.43"/><text class="cls-6" transform="translate(222.41 246)"><tspan x="0" y="0">- i n c r e í b l e -</tspan></text><line class="cls-2" x1="169.54" y1="279.24" x2="169.54" y2="310.52"/><line class="cls-2" x1="169.54" y1="268.87" x2="169.54" y2="274.23"/><path class="cls-4" d="M184.11,289.38c-.65-.43-7.65-4.73-14.49-4.68-6.85-.04-13.84,4.25-14.49,4.68-.65.43-3.8,2.14-6.96,2.13v5.24s4.55.49,8.1-1.63c3.55-2.11,7.87-4.75,13.36-4.75s9.8,2.64,13.35,4.75c3.55,2.12,8.1,1.63,8.1,1.63v-5.24c-3.16,0-6.31-1.7-6.96-2.13Z"/><path class="cls-4" d="M184.11,297.14c-.65-.43-7.65-3.86-14.49-3.81-6.85-.04-13.84,3.38-14.49,3.81-.65.43-3.8,1.27-6.96,1.25v5.25s4.55.49,8.1-1.63c3.55-2.12,7.87-3.01,13.36-3.01s9.8.89,13.35,3.01c3.55,2.12,8.1,1.63,8.1,1.63v-5.25c-3.16.01-6.31-.82-6.96-1.25Z"/><path class="cls-4" d="M148.09,272.79v9.36h42.9v-9.36h-42.9ZM187.95,279.24h-35.9v-3.21h35.9v3.21Z"/><path class="cls-4" d="M148.09,310v9.36h42.9v-9.36h-42.9ZM187.95,316.45h-35.9v-3.21h35.9v3.21Z"/><path class="cls-4" d="M184.85,303.82c-2.54-.48-9.65-2.3-15.3-2.44h0s-.07,0-.11,0-.07,0-.1,0h0c-5.65.15-12.77,1.97-15.3,2.45-2.57.49-5.87.66-5.87.66v4.96c3.89,0,9.84-.93,11.81-1.67,1.85-.69,8.57-.95,9.47-.99.9.03,7.62.3,9.47.99,1.98.73,8.2,1.67,12.09,1.67v-4.96s-3.57-.17-6.15-.66Z"/><path class="cls-9" d="M234.06,312.33v9.28h43.18v-9.28h-43.18ZM274.17,318.73h-36.13v-3.18h36.13v3.18Z"/><path class="cls-9" d="M255.92,305.15h-13.68s.76,1.63,1.18,2.32c.45.72,1.94,2.61,1.94,2.61h21.11s1.5-1.88,1.94-2.61c.43-.69,1.19-2.32,1.19-2.32h-13.68Z"/><path class="cls-9" d="M255.81,297.42h-16.29s.51,1.95.73,2.57c.31.87.85,2.56.85,2.56h29.08s.54-1.7.85-2.56c.22-.62.73-2.57.73-2.57h-15.95Z"/><path class="cls-9" d="M255.64,288.59h-17.68s.34,2.38.48,3.05c.32,1.59.83,2.47.83,2.47h32.75s.5-.88.83-2.47c.14-.67.48-3.05.48-3.05h-17.68Z"/><path class="cls-9" d="M253,285.79s1.61-1.68,2.35-4c.75-2.31.94-3.68-.07-6.51,0,0-1.75-4.1-1.03-6.15,0,0,.62-2.1,1.1-2.52,0,0-2.03,1.42-2.99,3.89-.96,2.47,1.01,5.7,1.01,5.7,0,0,.83,2.18.59,3.87,0,0-.81,5.41-.97,5.73Z"/><path class="cls-9" d="M256.7,284.94s1.26-1.19,1.9-2.88c.65-1.69.84-2.7.2-4.84,0,0-1.15-3.11-.53-4.61,0,0,.54-1.54.91-1.83,0,0-1.56.98-2.37,2.77-.81,1.8.54,4.28.54,4.28,0,0,.53,1.65.3,2.89,0,0-.81,3.99-.94,4.22Z"/><path class="cls-9" d="M274.47,293.18v-1.71h4.36s1.84-.14,2.56,1.93c.72,2.08-.24,6.32-.48,7.1-.24.79-1.04,3.3-3.63,4.85-2.59,1.56-5.75,1.63-6.92,1.64l.44-1.81s3.35-.17,4.95-1.31c1.6-1.13,2.6-1.41,3.4-3.75,0,0,.59-2.13.8-3.52.16-1.07.91-3.08-.64-3.33-1.56-.25-4.83-.09-4.83-.09Z"/><path class="cls-7" d="M332.26,310.84l29.38.03s-3.07,7.08-14.02,7.08-15.36-7.12-15.36-7.12Z"/><path class="cls-7" d="M327.57,302.88s.86,4.74,1.42,4.74h35.82s1.31-2.37,1.52-4.74h-38.76Z"/><path class="cls-7" d="M366.64,299.55c.28,0-.31-4.75-.31-4.75h-38.63c-.32,1.52-.45,4.75-.45,4.75h39.39Z"/><path class="cls-7" d="M328.72,291.59s1.21-3.98,1.58-4.74h33.35s1.31,4,1.57,4.74h-36.51Z"/><path class="cls-7" d="M337.22,275.49h19.31s-4-5.23-9.65-5.23-9.66,5.23-9.66,5.23Z"/><path class="cls-7" d="M335.19,278.89s-2.36,3.63-2.94,4.74h29.25s-2.78-4.74-2.99-4.74h-23.32Z"/><polygon class="cls-1" points="432.09 271.43 448.97 271.43 446.81 276.36 429.54 276.36 432.09 271.43"/><polygon class="cls-1" points="428.17 279.84 445.04 279.84 442.88 284.78 425.62 284.78 428.17 279.84"/><polygon class="cls-1" points="430.92 296.86 445.04 296.86 439.25 301.8 427.98 301.63 430.92 296.86"/><polygon class="cls-1" points="426.6 304.37 436.31 304.37 429.98 309.23 423.66 309.14 426.6 304.37"/><polygon class="cls-1" points="422.14 311.94 425.79 311.94 420.34 316.8 419.46 316.71 422.14 311.94"/><polygon class="cls-1" points="451.91 290.18 447.98 293.54 420.72 293.54 422.89 288.96 440.66 288.96 440.07 290.19 451.91 290.18"/></svg>