<?xml version="1.0" encoding="UTF-8"?><svg id="Capa_1" xmlns="http://www.w3.org/2000/svg" viewBox="0 0 49.26 82.95"><defs><style>.cls-1{fill:#96c;}</style></defs><rect class="cls-1" x="1.37" y="65.02" width="15.7" height="15.7" rx="4.54" ry="4.54" transform="translate(-48.82 27.86) rotate(-45)"/><path class="cls-1" d="M48.89,0c-4.91-.1-22.8,2.27-22.67,24.83l-.03,16.62v.02h0v21.69c0,3.75-.6,7.49-1.85,11.02-1.06,3.02-3.11,5.85-5.13,8.04-.26.28-.14.71.24.72,4.91.1,22.8-2.27,22.67-24.83l.03-16.62v-.02h0v-21.69c0-3.75.6-7.49,1.85-11.02,1.06-3.02,3.11-5.85,5.13-8.04.26-.28.14-.71-.24-.72Z"/></svg>